<mxfile host="app.diagrams.net" modified="2023-11-29T08:45:06.119Z" agent="Mozilla/5.0 (Macintosh; Intel Mac OS X 10_15_7) AppleWebKit/605.1.15 (KHTML, like Gecko) Version/17.0 Safari/605.1.15" version="22.1.4" etag="H_DNCsdqalpoZPVeUEAc" type="github">
  <diagram name="Page-1" id="klfdPK0e1ZeibKsmtFyo">
    <mxGraphModel>
      <root>
        <mxCell id="0" />
        <mxCell id="1" parent="0" />
      </root>
    </mxGraphModel>
  </diagram>
</mxfile>
